<svg id="Layer_1" data-name="Layer 1" xmlns="http://www.w3.org/2000/svg" viewBox="0 0 814 229"><defs><style>.cls-1{fill:#f48120;}.cls-2{fill:#3b9b46;}.cls-3{fill:#15292f;}</style></defs><path class="cls-1" d="M84.8,62a19.86,19.86,0,0,1-.26,26.66,25.58,25.58,0,0,1-6.3,5.17,23.16,23.16,0,0,1,11.06,6.7A25.6,25.6,0,0,1,96,117.87a27.11,27.11,0,0,1-3.85,13.82c-5.66,9.07-16.07,15.08-28.54,15.08H30.43c-1.67,0-1-1.12,1.54-2.52a26.5,26.5,0,0,1,6.82-2.37V61.33H30.43c-1.67,0-1-1.12,1.54-2.51s5.92-2.37,7.59-2.37H72A17.22,17.22,0,0,1,84.8,62ZM49.71,93.3H72c4.49-2.51,6.94-8.52,6.94-14A19.32,19.32,0,0,0,74,66.5a15.25,15.25,0,0,0-11.18-5.17H49.71Zm0,48.58h23c3,0,6.17-2.65,8.61-6.7a25,25,0,0,0-2.83-30,20.16,20.16,0,0,0-14.91-7H49.71Z"/><path class="cls-1" d="M129,152.94c-.64,0-.9-.13-.9-.39s1.16-1.41,3.34-2.31c6.94-3,11.05-19,11.05-31.49a68.55,68.55,0,0,0-.64-9.51c-1.28-8.49-7.71-15-15.55-15-1,0-.51-.52-3.21,2.18a21.56,21.56,0,0,0-5.92,12.21v33.94c0,.9-6.55,4.24-10,4.24-.51,0-.9-.13-.9-.39V28.65c0-1.16,6.68-2.83,7.71-3.08a37.76,37.76,0,0,1,6.56-.9c.77,0,1.15,0,1.15.25-2.31,15.81-4.24,32.13-4.5,48.07V95.36a33.25,33.25,0,0,1,18.13-5.66c13.36,0,18.12,10.8,18.12,24.81,0,13.49-2.7,30.07-17.87,36.63A21.36,21.36,0,0,1,129,152.94Z"/><path class="cls-1" d="M226.56,142.53c0,.38-.65.9-1.93,1.54a22.28,22.28,0,0,1-10.41,2.7A17.55,17.55,0,0,1,198.41,138c-7.45,4.75-16.71,8.74-25.19,8.74-6,0-9.9-3.34-9.9-8.49,0-7.32,8.36-22.62,16.71-31.36.26-.25.64-.51,1.54-1.41-4-7.58-9.12-11.31-16.19-11.31-2.57,0-2.83,0-2.83-.26,0-2.57,10.41-4.24,12.47-4.24,9.38,0,14.39,5.78,18,12.72l14,27.64c4.11,8.09,9.26,12.21,16.2,12.21C223.47,142.27,226.56,141.88,226.56,142.53ZM196.1,134l-11.44-22.49a16.67,16.67,0,0,0-1.67,2.57c-4.5,6.81-8.74,14.78-8.74,20.31,0,4.5,2.95,7.84,8.61,7.84,3.6,0,8.22-3,13.49-7.71A1,1,0,0,1,196.1,134Z"/><path class="cls-1" d="M335.54,142.53c0,.38-.64.9-1.92,1.54a22.28,22.28,0,0,1-10.41,2.7A17.53,17.53,0,0,1,307.4,138c-7.46,4.75-16.71,8.74-25.2,8.74-6,0-9.89-3.34-9.89-8.49,0-7.32,8.35-22.62,16.71-31.36.25-.25.64-.51,1.54-1.41-4-7.58-9.13-11.31-16.2-11.31-2.57,0-2.82,0-2.82-.26,0-2.57,10.41-4.24,12.46-4.24,9.39,0,14.4,5.78,18,12.72l14,27.64c4.11,8.09,9.25,12.21,16.19,12.21C332.46,142.27,335.54,141.88,335.54,142.53ZM305.08,134l-11.44-22.49a18.29,18.29,0,0,0-1.67,2.57c-4.5,6.81-8.74,14.78-8.74,20.31,0,4.5,3,7.84,8.61,7.84,3.6,0,8.23-3,13.5-7.71A1,1,0,0,1,305.08,134Z"/><path class="cls-1" d="M353.15,89.7c.64,0,.9.13.9.39v1.28H378.6c.64,0,.9.13.9.39,0,1.15-7.71,4.11-10.16,4.11H353.92c-.38,8.1-1.8,18.25-1.8,26.48,0,11.56,2.57,19.92,13.75,19.92a13.83,13.83,0,0,0,2.32-.13c.9,0,1.41.13,1.41.39s-.64.9-1.93,1.54a21.59,21.59,0,0,1-10.66,2.7c-12.86,0-15.94-8.49-15.94-20.44,0-9.51,1.93-21.08,2.05-30.46H318.45c-.65,0-.9-.13-.9-.39,0-1.41,7.58-4.11,10.15-4.11h19.54A17.33,17.33,0,0,1,353.15,89.7Z"/><path class="cls-2" d="M448.21,92.26c.64,0,.9.14.9.28V96c0,.86-2.44,2.44-5.53,3.6s-5.4,1.44-5.4.72v-3H405.92v36.42H440.5c1.67,0,.9,1-1.67,2.45a19.27,19.27,0,0,1-7.59,2.59H405.92v41.6h5.27c1.67,0,.9,1-1.54,2.45s-6,2.59-7.58,2.59H389.73c-1.67,0-1-1.15,1.54-2.59a30.52,30.52,0,0,1,3.73-1.59V97.29h-8.49c-1.54,0-.9-1.15,1.68-2.59s5.91-2.44,7.58-2.44Z"/><path class="cls-2" d="M452.7,126.51c-1.41.15-1.67,0-1.67-.28,0-1.87,7.46-4.75,10.8-4.75,5.27,0,8.61,7.63,8.61,17.7V170c0,3.74.51,10.36,5,10.36.9,0,1.8-.29,2.44-.29s1,.15,1,.44c0,2.44-9.89,4.89-12.47,4.89-6.42,0-6.94-6.48-6.94-11.08V143.5C459.51,135,456.43,126.51,452.7,126.51ZM457.33,97c0-1.88,7.07-8.21,8.74-8.21h.26l6.17,6.91.12.29c0,1.87-6.94,8.2-8.61,8.2-.25,0-.38,0-.38-.14l-6.17-6.91Z"/><path class="cls-2" d="M488.69,143.5c0-8.64-3.34-17-6.81-17-.26,0-1.67.44-1.67-.28,0-2,8.22-4.75,10.79-4.75,3,0,5.66,2.44,6.94,6.91a32.74,32.74,0,0,1,17.35-6.91h1.93c8.74,0,15.55,6.91,16.32,16.12v32.24c0,8.06,2.45,10.37,5,10.37,3.08-.29,3.47-.15,3.47.14,0,2.45-9.51,5-12.6,5-4,0-6.81-2.16-6.81-11.23V143.5c0-9.07-6.43-17-14.65-17h-1c-2.31.29-7.33,8.78-7.33,16v38.15c0,1.44-7.07,4.75-10,4.75-.64,0-.9-.14-.9-.43Z"/><path class="cls-2" d="M579.43,132.85c-.39,0-.78,0-.9-.29-2.83-3.6-6.94-6-11.19-6h-.77c-6.81,5.19-9.12,15.26-9.12,27.36,0,6,.38,12.09,3.21,17.41,2.83,5.47,7.58,9.07,12.85,9.07,4,0,7.33-1.15,11.57-4.89,1.67-1.44,6.81-4,9.38-3.89.65,0,1,.14,1,.43,0,1.87-8.74,6.62-11.57,8.06-5.78,2.88-12.33,5.33-19.28,5.33-9.12,0-16.06-7.34-17.47-17.71a69.3,69.3,0,0,1-.65-10.36c0-16.84,4.76-27.64,21-34.12a23.8,23.8,0,0,1,8.87-1.72,16,16,0,0,1,13,6.33V128c0,.58-1.41,2-4.5,3.31C584.18,131.55,581,132.85,579.43,132.85Z"/><path class="cls-2" d="M659.5,180.64c0,.43-.65,1-1.93,1.73a20.4,20.4,0,0,1-10.41,3c-6.94,0-12.21-3.31-15.81-9.79-7.46,5.33-16.71,9.79-25.19,9.79-6,0-9.9-3.74-9.9-9.5,0-8.21,8.35-25.34,16.71-35.13.26-.28.64-.57,1.54-1.58-4-8.49-9.12-12.67-16.19-12.67-2.57,0-2.83,0-2.83-.28,0-2.88,10.41-4.75,12.47-4.75,9.38,0,14.39,6.47,18,14.25l14,30.94c4.11,9.07,9.25,13.68,16.19,13.68C656.41,180.35,659.5,179.92,659.5,180.64ZM629,171.14,617.6,146a19.76,19.76,0,0,0-1.68,2.88c-4.49,7.62-8.74,16.55-8.74,22.74,0,5,3,8.78,8.62,8.78,3.59,0,8.22-3.31,13.49-8.64A1.12,1.12,0,0,1,629,171.14Z"/><path class="cls-2" d="M661.93,185.39c-.64,0-1-.14-1-.43V143.5c0-7.05-2.45-17-6.69-17a4.07,4.07,0,0,0-.77.15c-.64,0-1-.15-1-.43,0-2,8.1-4.75,10.93-4.75,3.47,0,6.3,3.45,7.58,9.35,4.5-3.88,14.14-9.21,21.72-9.21.52,0,.77,0,.9.29.77,4.6,6.3,8.2,12.6,8.2h1c.77,0,1.15.15,1.15.43,0,2.16-9.38,4.75-11.05,4.75-7.46,0-13.24-3.45-14.52-8.49l-.39.15C674,130.69,672,143.64,672,153v27.64C672,181.93,665.15,185.39,661.93,185.39Z"/><path class="cls-2" d="M757.43,137.45c.13.72-2.7,2.31-5.53,3.46L716.81,155.3c.77,5.33.13,10.66,3.22,16.13s7.71,8.92,13.11,8.92c4.88,0,7.58-1.58,11.31-4.89,1.67-1.44,6.94-3.75,9.38-3.75.64,0,.9.15.9.43a1.07,1.07,0,0,1-.51.72c-7.46,6.77-18.77,12.53-30.34,12.53-6.3,0-11.69-3.6-14.78-9.5-2.83-5.33-3.34-12.09-3.34-18.28,0-13.39,3.08-24,13.11-30.52,4.37-2.88,10.8-5.61,16.71-5.61a16.79,16.79,0,0,1,12.47,5.61c2.44,2.88,4.11,9.93,8.48,9.93C757.17,137,757.43,137.17,757.43,137.45Zm-18.51-3.31c-2.83-4.75-7.58-7.63-12.34-7.63h-.77c-6.55,4.9-9,14.4-9,25.91l27.51-11.22C741.36,139.47,740.59,136.88,738.92,134.14Z"/><rect class="cls-1" x="32.47" y="157.37" width="345.48" height="10.38"/><rect class="cls-1" x="32.47" y="173.21" width="345.48" height="10.38"/><path class="cls-2" d="M271.78,59.38,265,68.2H251a19.63,19.63,0,0,1,3.58,4.88,21.62,21.62,0,0,1,2,6.32h15.19L265,88.22h-8.44a22,22,0,0,1-3.2,8,22.56,22.56,0,0,1-6.31,6.31,31.68,31.68,0,0,1-9.29,4.15,45.09,45.09,0,0,1-12,1.49l41,38.55H248.83l-39.62-37.6v-8.82h9.92a44.9,44.9,0,0,0,8.64-.78,27.46,27.46,0,0,0,7.09-2.32A17.51,17.51,0,0,0,240,93.44a12.4,12.4,0,0,0,2.87-5.22h-37l6.74-8.82h30.24a14.1,14.1,0,0,0-6.65-8.16q-5.08-3-13.87-3H205.84l6.74-8.82Z"/><path class="cls-3" d="M751.67,93.1h-6.83V89.4h17.74v3.7h-6.84V111h-4.07Z"/><path class="cls-3" d="M782.9,95.34l-7,9.37h-.8l-6.87-9.4V111h-4.06V89.43h4.68l6.74,9.27,6.74-9.27H787V111H782.9Z"/></svg>