<svg xmlns="http://www.w3.org/2000/svg" id="Layer_1" data-name="Layer 1" viewBox="0 0 578 245"><defs><style>.cls-1{fill:#fff;}.cls-2{fill:#eae855;}</style></defs><path class="cls-1" d="M8.85,67.33h37v11.3h.42c8.37-8.37,19-14.44,30.77-14.44,19.67,0,47.09,9.84,47.09,39.77V174.7h-37V114c0-10.67-7.32-20.92-19.25-20.92-11.09,0-22,10.25-22,20.92v60.7h-37Z"></path><path class="cls-1" d="M178,126.14c0,16.54,13.82,22.19,23.24,22.19,11.92,0,17.16-2.31,26.16-11.93l26.78,13.39c-12.13,20.3-31.81,28-55.67,28-32.43,0-59-25.53-59-56.71,0-31.39,26.58-56.93,59-56.93,32.65,0,57.56,19.26,57.56,56.93a38.5,38.5,0,0,1-.21,5Zm41.86-20.51c-1.67-11.3-9.42-17.37-20.3-17.37-12.77,0-19.88,7.54-20.51,17.37Z"></path><path class="cls-1" d="M352.92,174.7l-23.65-30.35L305.62,174.7H260.83l45.84-56.09L267.32,67.33h43.32l18.63,24.91L347.9,67.33h43.32l-39.35,51.28,45.84,56.09Z"></path><rect class="cls-1" x="8.45" y="26.91" width="520.81" height="22.27"></rect><rect class="cls-1" x="347.41" y="75.16" width="170.72" height="27.22" transform="translate(344 521.53) rotate(-90)"></rect><path class="cls-2" d="M7.8,188.55H20.2q6.35,0,9.26,2.95t2.92,9.08v2.09a14.42,14.42,0,0,1-1.31,6.58,7.66,7.66,0,0,1-4,3.66v.15q6.13,2.08,6.13,10.9v4.49q0,6-3.18,9.22t-9.3,3.18H7.8Zm11.43,21.29a4.93,4.93,0,0,0,3.7-1.27q1.23-1.26,1.23-4.26V201.4a6.67,6.67,0,0,0-1-4.11A3.82,3.82,0,0,0,20,196H16v13.82Zm1.49,23.54a4.14,4.14,0,0,0,3.22-1.16,6,6,0,0,0,1-4v-4.56q0-3.58-1.23-5a5.19,5.19,0,0,0-4.07-1.39H16v16.07Z"></path><path class="cls-2" d="M82.8,188.55H91v52.3H82.8Z"></path><path class="cls-2" d="M144.51,238.19q-3.13-3.39-3.14-9.74V201q0-6.34,3.14-9.75t9.11-3.4q6,0,9.12,3.4t3.14,9.75v4.49h-7.77v-5c0-3.44-1.42-5.15-4.26-5.15s-4.26,1.71-4.26,5.15V229q0,5.09,4.26,5.08t4.26-5.08V218.81H154v-7.47h11.88v17.11q0,6.35-3.14,9.74t-9.12,3.4Q147.65,241.59,144.51,238.19Z"></path><path class="cls-2" d="M272.78,188.55h12.4q6.35,0,9.26,2.95t2.92,9.08v2.09a14.42,14.42,0,0,1-1.31,6.58,7.66,7.66,0,0,1-4,3.66v.15q6.13,2.08,6.13,10.9v4.49q0,6-3.18,9.22t-9.3,3.18H272.78Zm11.43,21.29a4.93,4.93,0,0,0,3.7-1.27q1.23-1.26,1.23-4.26V201.4a6.67,6.67,0,0,0-1-4.11A3.82,3.82,0,0,0,285,196h-4v13.82Zm1.49,23.54a4.14,4.14,0,0,0,3.22-1.16,6,6,0,0,0,1-4v-4.56q0-3.58-1.23-5a5.19,5.19,0,0,0-4.07-1.39H281v16.07Z"></path><path class="cls-2" d="M350.4,238.16q-3.21-3.43-3.21-9.71V201q0-6.27,3.21-9.71t9.26-3.44c4,0,7.12,1.15,9.27,3.44s3.21,5.53,3.21,9.71v27.5q0,6.27-3.21,9.71c-2.15,2.29-5.23,3.43-9.27,3.43S352.54,240.45,350.4,238.16ZM363.92,229V200.43c0-3.44-1.42-5.15-4.26-5.15s-4.26,1.71-4.26,5.15V229q0,5.15,4.26,5.15T363.92,229Z"></path><path class="cls-2" d="M428.54,214.1l-9-25.55h8.67l5.53,16.89h.15l5.67-16.89h7.77l-9,25.55,9.49,26.75h-8.66l-6-18.23H433l-6.13,18.23h-7.77Z"></path><path class="cls-1" d="M535.9,7h-6.64V3.41H546.5V7h-6.65V24.36h-4Z"></path><path class="cls-1" d="M566.25,9.18l-6.82,9.1h-.78L552,9.15V24.39h-4V3.44h4.54l6.56,9,6.55-9h4.52v21h-4Z"></path></svg>